<svg xmlns="http://www.w3.org/2000/svg" version="1.1" viewBox="0 0 100 100">
    <path d="m41.875 66.465c-0.027344-0.41406-0.21875-0.80078-0.53125-1.0781l-10.25-8.8906c-0.30859-0.27344-0.71484-0.41016-1.1289-0.38281-0.41406 0.023438-0.80078 0.21484-1.0742 0.52344l-22.25 25.609c-0.57031 0.65234-0.50781 1.6445 0.14062 2.2188l10.25 8.8906c0.3125 0.27344 0.71875 0.41406 1.1328 0.38672 0.41406-0.027344 0.79688-0.21484 1.0703-0.52734l22.266-25.609c0.26953-0.31641 0.40234-0.72656 0.375-1.1406z"/>
    <path d="m58.547 44.016-13.312-2.5938c-0.85156-0.15234-1.668 0.40234-1.8438 1.25l-3.3906 17.422 3.3906 2.9375v-0.003906c0.9375 0.82031 1.5078 1.9805 1.5938 3.2188 0.09375 1.2305-0.30469 2.4453-1.1094 3.375l-7.375 8.4844-2.1719 11.188c-0.16016 0.84766 0.39062 1.6641 1.2344 1.8281l13.328 2.5938c0.84375 0.16406 1.6641-0.38672 1.8281-1.2344l9.0625-46.637c0.082031-0.40625-0.003906-0.83203-0.23438-1.1758-0.23438-0.33984-0.59375-0.57812-1-0.65234z"/>
    <path d="m78.609 17.531h13.578c0.86328 0 1.5625 0.86328 1.5625 1.5625v73.09c0 0.86328-0.69922 1.5625-1.5625 1.5625h-13.578c-0.86328 0-1.5625-0.86328-1.5625-1.5625v-73.09c0-0.86328 0.69922-1.5625 1.5625-1.5625z"/>
    <path d="m71.828 31.109h-13.578c-0.86328 0-1.5586 0.69922-1.5625 1.5625v7.7969l2.4531 0.48438c1.2266 0.23047 2.3086 0.94531 3.0039 1.9805 0.69531 1.0391 0.94922 2.3086 0.69922 3.5352l-6.1562 31.656v14.062-0.003906c0.003906 0.86328 0.69922 1.5625 1.5625 1.5625h13.578c0.85938 0 1.5586-0.69922 1.5625-1.5625v-59.512c-0.003906-0.86328-0.70312-1.5625-1.5625-1.5625z"/>
    <path d="m75 6.25h-6.6289c-0.85156 0.015625-1.5352 0.71094-1.5352 1.5625s0.68359 1.5469 1.5352 1.5625h2.7578l-24.238 22.82-33.695-16.66c-0.77344-0.37891-1.7109-0.0625-2.0898 0.71094-0.38281 0.77344-0.066407 1.707 0.70312 2.0898l34.672 17.141c0.58203 0.28906 1.2852 0.18359 1.7617-0.26172l25.195-23.719v2.9453c0.007812 0.85547 0.70312 1.5469 1.5625 1.5469 0.85547 0 1.5547-0.69141 1.5625-1.5469v-6.6289c0-0.86328-0.69922-1.5625-1.5625-1.5625z"/>
</svg>