<svg xmlns="http://www.w3.org/2000/svg" version="1.1" viewBox="0 0 100 100">
    <path d="m53.461 41.375c1.5391-3.5-0.58594-7.4766-2.2617-10.762-1.8164-3.5664-1.3359-10.016-1.3359-10.016s-1.9883 5.9336 0.13672 13.277c0 0-1.4961 0.49219-4.418-3.8086-1.9102-2.8125-3.1953-3.6016-3.1953-3.6016s4.5273 7.5781 6.6562 9.3281c1.9531 1.6055-1.4922 1.4336-2.3125 5.5547-14.078 1.6289-25.051 13.617-25.051 28.125 0 15.621 12.703 28.324 28.32 28.324s28.32-12.703 28.32-28.32c0-14.445-10.871-26.387-24.859-28.102zm15.75 25.91c-0.73047 0.71094-3.8945 1.4102-4.6719 1.1719-1.3125-0.75-3.0938-0.51562-4.2344 0.55859-0.625 0.58984-1.9258 2.2891-0.4375 5.3047 1.3203 2.6719 3.5469 3.8984 4.7422 4.5586 0.046875 0.027344 0.09375 0.050782 0.13672 0.074219-0.21875 4.25 0.74219 7.0234 2.8398 8.3125-2.1602 2.1328-4.7031 3.8789-7.5234 5.1172-1.1445-3.332-6.8047-5.1094-7.1641-5.2539-1.1172-0.44922-1.207-0.48828-1.2539-1.2852-0.015625-0.29297-0.078125-6.1641-5.082-7.9062-3.5781-1.25-6.4336 0.20312-8.5234 1.2578-0.82031 0.41406-1.668 0.84375-2.1016 0.84375-0.39844 0-1.2617-0.97266-1.7773-1.5547-1.1289-1.2734-2.5352-2.8516-4.5742-2.543-1.4609 0.22266-2.3672 1.293-2.9336 2.5352-1.0781-2.7969-1.6797-5.8281-1.6797-9 0-6.375 2.4023-12.203 6.3438-16.625 0 0 0.22266 0.78516 0.035156 2.7461-0.51562 5.3438 2.0469 7.0078 4.3125 8.4688 1.4023 0.90625 1.5039 1.3438 1.7734 2.5117 0.0625 0.26562 0.125 0.55078 0.21094 0.85547 0.64453 2.3984 6.2656 2.9375 6.625 3.0234 0.30469 0.074219 5.0781 2.6875 6.5938 2.6875 0.35156 0 2.3594-0.9375 2.6953-1.6836 0.61719-1.3516 0.39453-2.6953 0.19922-3.8789-0.26172-1.5859-0.35156-2.4609 0.67188-3.4297 0.61328-0.58203 1.3047-1.1055 1.9766-1.6094 2.2578-1.6992 3.1641-8.2266 3.1523-8.2578 0.56641-0.41797 2.6094-0.70703 3.7344-0.86719 1.8398-0.25781 3.5938-0.51562 4.6484-1.3672 2.3125 2.375 4.1484 5.2109 5.3789 8.3477-0.29688 0.82422-0.82812 1.8047-1.1172 2.0625-1.7969 0.64844-2.9258 2.4766-2.9961 4.8242z"/>
    <path d="m52.125 15.969c3.543-3.1328 5.1914-8.5078 5.1914-8.5078s-0.54688 5.1914-4.2969 8.918c-3.8672 3.8438-2.2656 9.3516-2.2656 9.3516 19.621-11.453 5.832-23.527 5.832-23.527s-0.54688 3.7031-7.6836 9.4688c-7.1367 5.7617-0.54688 13.48-0.54688 13.48-0.003907-0.003906-0.57422-5.3438 3.7695-9.1836z"/>
    <path d="m44.367 30.801s-2.3047-5.1758-7.1758-6.2812c-4.7266-1.0703-8.2422-4.9141-8.2422-4.9141s4.3516 3.4336 8.5781 4.1406c5.1836 0.86328 8.0586 5.3867 8.0586 5.3867s-0.38281-9.4297-8.5664-10.418c-8.1797-0.98438-10.793-3.6484-10.793-3.6484-0.003906 0-1.6836 16.504 18.141 15.734z"/>
</svg>