<svg xmlns="http://www.w3.org/2000/svg" version="1.1" viewBox="0 0 100 100">
 <path d="m10.445 44.086c1.1484 1.0938 2.3828 1.6445 2.8906 1.6562-0.007813-0.71484-1.0078-2.2266-1.6484-2.8906-1.0156-1.0156-2.25 0.21875-1.2422 1.2344zm4.0703-2.3281c0.10938 1.5859 0.65234 2.8203 1.0234 3.1719 0.47656-0.53906 0.75-2.3281 0.71875-3.25-0.066406-1.4258-1.8125-1.3438-1.7422 0.078124zm32.613 36.508c1.1484-1.1016 1.7383-2.3125 1.7734-2.8242-0.71484-0.023437-2.2656 0.92188-2.957 1.5312-1.0547 0.97266 0.13281 2.2578 1.1836 1.293zm-2.1602-4.1562c1.5898-0.046875 2.8398-0.54297 3.2109-0.89844-0.51563-0.49609-2.293-0.83984-3.2227-0.85156-1.4258 0.011719-1.418 1.7578 0.011719 1.75zm6.2227 6.2227c0.48828-1.5117 0.4375-2.8594 0.21875-3.3242-0.63672 0.32031-1.5547 1.875-1.8711 2.75-0.46875 1.3555 1.1836 1.9258 1.6523 0.57422zm34.012-6.6133c-1.2734-0.95312-2.5625-1.3398-3.0781-1.2852 0.10156 0.70312 1.2812 2.0781 2.0039 2.6641 1.1211 0.87891 2.1992-0.50391 1.0742-1.3789zm-3.75 2.8125c-0.30469-1.5547-0.99609-2.7109-1.4141-3.0156-0.40234 0.58594-0.45312 2.3984-0.3125 3.3164 0.25 1.4023 1.9688 1.1055 1.7266-0.30078zm5.125-7.1562c-1.5742-0.23438-2.8906 0.03125-3.3164 0.32031 0.42188 0.57813 2.1094 1.2227 3.0234 1.3984 1.4023 0.24219 1.6992-1.4805 0.29297-1.7188zm-25.859-40.457c-2.8281 0.039062-4.0195 0.21875-4.7266 0.50781-0.96875 0.39844-0.80469 3.3047-0.011719 3.3906 1.4531 0.14453 2.0938 0.29688 4.418 0.41016 0.15625 2.1875 0.066406 2.4062 0.42969 4.4141 0.0625 0.34375 2.6914 0.31641 2.9297 0.3125 1.0391-0.046875 1.1289-3.3047 1.2266-4.6016 2.7422 0.050782 2.9922-0.16016 4.418-0.42187 0.34375-0.0625 0.33594-2.4297 0.33203-2.6641-0.03125-0.76562-1.1133-0.98438-4.7773-1.0938-0.054687-1.6641 0.16016-2.6719-0.27734-4.0703-0.31641-1-3.5664-0.92969-3.6484-0.14453-0.19531 1.9844-0.17969 1.9766-0.3125 3.9609zm3.5078-6.168c2.2812 0.29297 2.3047 0.34375 2.3984 4.9062 3.7695 0.21875 3.5 0.48438 4.3125 0.96875 1.0547 0.625 0.71094 3.1797 0.63281 3.9531-0.14844 1.5234 0.015626 2.1328-3.0547 2.3633-0.61719 0.050782-1.4375 0.21875-2.1016 0.23828-0.21875 3.7812-0.47656 3.3281-0.96094 4.1406-0.63281 1.0547-3.1797 0.71094-3.9531 0.63281-1.5234-0.14844-2.2695-1.1797-2.5-4.2578-0.050781-0.61719-0.085938-0.070312-0.10547-0.74219-2.2031-0.19922-3.6875-0.58203-4.4922-0.75781-0.92188-0.20312-1.0547-3.2812-0.74219-4.875 0.33594-1.7227 0.88281-1.7852 5.4648-1.875 0.19531-2.1953 0.48828-2.8633 0.8125-3.6172 0.72266-1.707 2.6719-1.2852 4.2891-1.0781zm-28.32 1.8086c-2.2109-4.8125-5.293-9.1875-10.711-10.953-9.3125-3.0352-15.68 3.1523-13.555 12.512 3.6094 15.867 25.184 23.547 28.93 33.5 5.4375-3.4688 11.355-8.6562 16.594-14.82-6.8477-2.3125-10.688-9.1562-9.0352-16.977 2.0156-9.5781 13.461-13.387 21.145-8.8281-0.46094-10.32-11.133-14.109-20.684-8.582-7.457 4.3203-11.719 13.293-14.234 21.32 0.18359-2.3438 0.72266-4.7812 1.5508-7.1719zm42.102-4.5078c-0.42187 0.98047-1.625 3.3164-1.1133 4.1797 0.94531 1.5898 4.6836-2.707 5.2344-3.3672 0.83594-1.0156 2.5-2.6094 2.0547-3.9141-0.93359-2.6602-4.9609 1.9492-6.1758 3.1016zm7.5 9.7344c-0.98437 0.42188-3.4648 1.2969-3.6836 2.2734-0.40234 1.8047 5.2578 1.2461 6.1094 1.1406 1.3008-0.16016 3.6172-0.17188 4.1797-1.4336 1.1602-2.5703-4.9336-1.9805-6.6055-1.9805zm-3.6484 10.16c-1.0078-0.36719-3.4062-1.4375-4.2422-0.875-1.5312 1.0352 2.9688 4.5234 3.6562 5.0273 1.0547 0.78125 2.7461 2.3594 4.0234 1.832 2.6094-1.0742-2.2266-4.8398-3.4375-5.9844zc2.7891 1.2266 7.4492 4.6484 4.8203 7.0039-2.8398 2.5469-9.4922-3.6172-10.414-6.4922-0.95312-2.9766 2.1367-3.0547 4.5234-1.418zm-18.809 46.73c0.0625 0.007813 0.12109 0.011719 0.17188 0.011719 4.457 0.10156 6.5156-0.92578 9.6641-2.5312-4.0547-7.082-4.5469-15.109-1.1875-22.93 0.76953-1.7852 7.1406-13.172 5.3594-14.164-3.4297-1.9062-9.2266 15.535-15.703 19.238-5.4375 3.1094-8.8125-5.6875-11.578-3.2344-2.3828 2.1211 6.6016 9.3594 8.0664 11.203 1.9844 2.4922 4.4102 8.1367 5.207 12.406zm11.762-3.1133c-4.0391 3.7188-8.6211 4.6562-13.824 4.3906 0.34375 1.1523 0.69141 2.2969 1.0898 3.5039 2.4609 1.6172 14.891-0.38281 14.434-3.8594-0.17578-1.3477-1.1992-2.6992-1.6992-4.0352zm-47.863 4.1094c-0.10547 0.007813-0.19922 0.015625-0.28125 0.015625-3.7812 0.085938-5.5312-0.78906-8.2031-2.1484 3.2344-6.2812 3.6328-13.391 0.63281-20.059-0.95703-2.1328-7.8281-12.59-6.4688-13.906 1.8828-1.8164 7.4375 7.707 8.0664 8.625 11.516 16.754 12.879 2.9531 17.219 3.9531 3.6328 0.83594-4.1133 8.4141-4.8359 9.2852-2.7656 3.3008-5.9922 9.4023-6.1289 14.234zm0.69922 3.9531-0.011719 0.039062c0.003906-0.03125 0.003906-0.023437 0.011719-0.039062zm-10.832-6.5938c3.4297 3.1562 7.3281 3.9531 11.754 3.7344-0.29297 0.98047-0.58203 1.832-0.92578 2.8594-2.0938 1.3789-12.668-0.20312-12.273-3.1562 0.15625-1.1562 1.0195-2.3008 1.4453-3.4375zm8.2305-22.59c-0.99609-3.8359-1.418-8.3867-2.9727-12.172-0.40234-0.97656-2.0312-3.1719-2.8828-1.625-0.18359 0.33203 0.95312 4.7969 1.25 7.375 1.9609 2.7305 2.6875 4.0742 4.6055 6.4219zm46.195 5.0234c1.3125-2.3359 3.2266-5.2656 4.3984-6.9141 1.4766-2.082 4.7773-6.2695 5.2656-7.8945 0.38672-1.2852-1.1484-1.8359-2.3125-1.5117-1.4062 4.0078-4.5 8.7891-5.4141 10.742-0.91406 1.9531-1.5547 3.8008-1.9375 5.5781zm-8.207-49.113c-9.5117-0.33594-15.84 8.1602-12.855 16.906 2.3672 6.9453 9.6094 10.055 15.559 8.2539 6.1445-1.8555 10.039-7.5234 9.168-14.035-0.87109-6.4805-5.0703-10.887-11.871-11.125zm-54.488 29.875c1.5273 0.42578 2.8672 0.32031 3.3281 0.085938-0.34375-0.625-1.9414-1.4766-2.8242-1.7578-1.3711-0.41406-1.8711 1.2578-0.50391 1.6719z" fill-rule="evenodd"/>
</svg>