<svg xmlns="http://www.w3.org/2000/svg" xmlns:xlink="http://www.w3.org/1999/xlink" version="1.1" x="0px" y="0px"
     viewBox="0 0 100 100" enable-background="new 0 0 100 100" xml:space="preserve"><path d="M90.57,38.597c-2.166,14.226-6.715,48.592-35.18,41.06c-11.791-3.12-7.472-11.224-4.565-11.964  c5.069-1.291,8.767,5.248,12.737,3.853c8.303-2.921,3.346-9.812-4.787-9.257C52.59,62.71,44.611,46.291,64.283,54.6  c16.883,7.131,14.146-11.881-0.014-9.922c-6.543,0.905-11.213-8.229,10.385-10.064c6.574-0.561,9.709-2.187,10.74-4.22  c4.95-10.84-8.351-14.72-12.472-11.565c0,0,0,0,0-0.001c0,0.001-0.003,0.004-0.003,0.005c-2.784,3.18-7.102,4.048-9.645,1.934  c-1.875-1.56-2.258-4.305-1.213-6.917c0.039-0.063,0.078-0.129,0.117-0.195c1.937-3.403,0.178-8.053-3.926-10.387  c-4.104-2.333-8.998-1.466-10.933,1.937c-0.781,1.372-0.96,2.947-0.627,4.492c-15.589-1.071-30.136,5.319-37.359,18.02  C3.2,38.507,3.688,51.52,9.429,63.07c2.166-14.227,6.718-48.59,35.181-41.059c11.791,3.119,7.471,11.222,4.566,11.961  c-5.071,1.293-8.767-5.247-12.738-3.851c-8.304,2.921-3.347,9.812,4.786,9.257c6.187-0.422,14.165,15.999-5.506,7.69  C18.831,39.937,21.57,58.952,35.73,56.99c6.544-0.906,8.171,6.271-13.425,8.109c-6.402,0.543-9.538,2.1-10.655,4.061l-0.016-0.016  C6.685,79.988,19.993,83.865,24.11,80.709c0.067-0.084,0.137-0.167,0.207-0.248c2.781-3.182,7.102-4.048,9.644-1.936  c1.946,1.619,2.285,4.516,1.088,7.214c-0.143,0.189-0.276,0.396-0.398,0.608c-1.935,3.401-0.176,8.053,3.928,10.387  c4.104,2.332,9,1.466,10.935-1.938c0.551-0.967,0.801-2.037,0.785-3.123c16.699,2.161,32.678-4.204,40.363-17.72  C96.799,63.159,96.314,50.148,90.57,38.597z"/>
</svg>
